<svg xmlns="http://www.w3.org/2000/svg" data-name="Layer 1" viewBox="0 0 100 125" x="0px" y="0px" fill="#ecc94b"><path d="M57.6,24.33c0,8.24-3.43,14.92-7.66,14.92s-7.67-6.68-7.67-14.92S49.94,9.42,49.94,9.42,57.6,16.1,57.6,24.33Z"/><path d="M67.22,51.09c-5.82,5.82-13,8.12-16,5.12s-.7-10.14,5.13-16,16-5.13,16-5.13S73.05,45.26,67.22,51.09Z"/><path d="M67.22,73.52c-5.82,5.83-13,8.12-16,5.13s-.7-10.14,5.13-16,16-5.13,16-5.13S73.05,67.7,67.22,73.52Z"/><path d="M32.78,51.09c5.82,5.82,13,8.12,16,5.12s.7-10.14-5.13-16-16-5.13-16-5.13S27,45.26,32.78,51.09Z"/><path d="M32.78,73.52c5.82,5.83,13,8.12,16,5.13s.7-10.14-5.13-16-16-5.13-16-5.13S27,67.7,32.78,73.52Z"/><rect x="48.73" y="38.67" width="2.42" height="51.92"/></svg>